{"title":"Detective Martin Beck, 6 Movies 3DVDrip Swedish Klam","uid":6924528,"size":7557450236,"categoryP":"video","categoryS":"movies","magnet":"?xt=urn:btih:7c231b1d3c18cd5eb66f7ad19ae1b2913c7d762e&amp;dn=Detective+Martin+Beck%2C+6+Movies+3DVDrip+Swedish+Klam&amp;tr=udp%3A%2F%2Ftracker.openbittorrent.com%3A80&amp;tr=udp%3A%2F%2Fopen.demonii.com%3A1337&amp;tr=udp%3A%2F%2Ftracker.coppersurfer.tk%3A6969&amp;tr=udp%3A%2F%2Fexodus.desync.com%3A6969","seeders":3,"leechers":1,"uploader":"Klambake","files":-1,"time":1325423091,"description":"Hoofdpersonage is Martin Beck, inspecteur bij de Zweedse moordbrigade. Beck is een nuchtere antiheld: hij doet zijn werk en voert uit wat zijn oversten hem opdragen, zonder zich al te veel te storen aan hun ambities of motieven. Een intelligent speurder, die goed kan luisteren en ongeeÃ‚Â¨venaard is in het maken van analyses en het afnemen van verhoren.\n\n01 De vrouw in het GÃƒÂ¶takanaal,\nIn een sluis van het GÃƒÂ¶takanaal wordt het lijk van een jonge vrouw aangetroffen....\n\n02 De brandweerauto die verdween,\nWaarom schreef de man die zichzelf van het leven beroofde vlak voor zijn dood een naam op een blocnote? De naam van een politieman, de naam Martin Beck, chef van de rijksmoordbrigade...\n\n03 De man die even wilde afrekenen,\nOp hetzelfde ogenblik trok de man die zojuist gearriveerd was een staalblauw voorwerp met een geprofileerde kolf en een lange loop, mikte nauwkeurig en schoot de spreker in het...\n\n04 De man op het balkon,\nKort na elkaar worden twee jonge meisjes vermoord. Het gehele politiekorps van Stockholm is op de been om de dader op te sporen. Er is slechts ÃƒÂ©ÃƒÂ©n ding over hem bekend: hij is een lustmoordenaar...\n\n05 De politiemoordenaar,\nEr lopen voor chef van de rijksmoordbrigade Martin Beck en zijn naaste medewerker Kolberg twee zaken door elkaar. Ze moeten de sadistische moordenaar van een gescheiden vrouw opsporen en zijn tevens ingezet...\n\n06 De terroristen,\nDe veiligheidsexpert glimlachte tegen Gunvald Larsson, knikte geruststellend en vouwde zijn papier op. Op dat moment opende zich de grond, vlak onder de kogelvrije Cadillac. De luchtdruk sloeg beide mannen naar achteren.EÃƒÂ©n ding was..\n\n\nSix movies about Martin Beck:\n\n01 Roseanna,\nOn a July afternoon, a young woman's body is dredged from Sweden's beautiful Lake Vattern. With no clues Beck begins an investigation not only to uncover a murderer but also to discover who the victim was...\n\n02 The Fire Engine that Disappeared,\nBeck investigating one of the strangest, most violent, and unforgettable crimes of his career.The incendiary device that blew the roof off a Stockholm apartment not only interrupted the small, peaceful orgy underway inside, it nearly took the lives of the building's eleven occupants...\n\n03 The Man Who Went Up in Smoke,\nInspector Martin Beck of the Stockholm Homicide Squad has his summer vacation abruptly terminated when the top brass at the foreign office pack him off to Budapest to search for Alf Matsson, a well-known Swedish journalist who has vanished...\n\n04 The Man on the Balcony,\nMartin Beck investigating a string of child murders.In the once peaceful parks of Stockholm, a killer is stalking young girls and disposing their bodies...\n\n05 Cop Killer,\nIn a country town, a woman is brutally murdered and left buried in a swamp. There are two main suspects: her closest neighbor and her ex-husband. Meanwhile, on a quiet suburban street a midnight shootout takes place between three cops and two teenage boys...\n\n06 The Terrorists,\nAn American senator is visiting Stockholm and Martin Beck must lead a team to protect him from an international gang of terrorists...\n\n------------------------ Dutch Friends ------------------------\n---------------------------------------------------------------\n- Bezoek ook eens mijn vrienden op: &lt;a href=&quot; http://www.Film-Test.nl&quot; rel=&quot;nofollow&quot; target=&quot;_NEW&quot;&gt; http://www.Film-Test.nl&lt;/a&gt; --\n----- voor mijn Nederlandse Sync. ondertitels ---- en meer ----\n------- http://www.Film-Test.nl ---- voor Films en meer -------\n---------------------------------------------------------------\n\nGeneral:\n\nComplete name                    : Martin Beck\\01 Roseanna.avi\nFormat                           : AVI\nFormat/Info                      : Audio Video Interleave\nFile size                        : 1.18 GiB\nDuration                         : 1h 34mn\nOverall bit rate                 : 1 776 Kbps\n\nVideo:\n\nFormat                           : MPEG-4 Visual\nFormat profile                   : Simple@L3\nFormat settings, BVOP            : No\nFormat settings, QPel            : No\nFormat settings, GMC             : No warppoints\nFormat settings, Matrix          : Default (H.263)\nCodec ID                         : XVID\nCodec ID/Hint                    : XviD\nDuration                         : 1h 34mn\nBit rate                         : 1 541 Kbps\nWidth                            : 704 pixels\nHeight                           : 424 pixels\nDisplay aspect ratio             : 1.660\nFrame rate                       : 25.000 fps\nColor space                      : YUV\nChroma subsampling               : 4:2:0\nBit depth                        : 8 bits\nScan type                        : Progressive\nCompression mode                 : Lossy\nBits/(Pixel*Frame)               : 0.207\nStream size                      : 1.02 GiB (87%)\nWriting library                  : XviD 1.1.2 (UTC 2006-11-01)\n\nAudio:\n\nFormat                           : AC-3\nFormat/Info                      : Audio Coding 3\nMode extension                   : CM (complete main)\nCodec ID                         : 2000\nDuration                         : 1h 34mn\nBit rate mode                    : Constant\nBit rate                         : 224 Kbps\nChannel(s)                       : 2 channels\nChannel positions                : Front: L R\nSampling rate                    : 48.0 KHz\nBit depth                        : 16 bits\nCompression mode                 : Lossy\nStream size                      : 152 MiB (13%)\nAlignment                        : Aligned on interleaves\nInterleave, duration             : 32 ms (0.80 video frame)\nInterleave, preload duration     : 320 ms\n\n\n","torrent":{"xt":"urn:btih:7c231b1d3c18cd5eb66f7ad19ae1b2913c7d762e","amp;dn":"Detective+Martin+Beck%2C+6+Movies+3DVDrip+Swedish+Klam","amp;tr":["udp%3A%2F%2Ftracker.openbittorrent.com%3A80","udp%3A%2F%2Fopen.demonii.com%3A1337","udp%3A%2F%2Ftracker.coppersurfer.tk%3A6969","udp%3A%2F%2Fexodus.desync.com%3A6969"],"infoHash":"7c231b1d3c18cd5eb66f7ad19ae1b2913c7d762e","infoHashBuffer":{"type":"Buffer","data":[124,35,27,29,60,24,205,94,182,111,122,209,154,225,178,145,60,125,118,46]},"announce":[],"urlList":[]}}